<svg id="visual" viewBox="0 0 900 300" width="900" height="300" xmlns="http://www.w3.org/2000/svg" xmlns:xlink="http://www.w3.org/1999/xlink" version="1.1"><rect x="0" y="0" width="900" height="300" fill="#ffffff"></rect><path d="M0 158L21.5 166.3C43 174.7 86 191.3 128.8 190.7C171.7 190 214.3 172 257.2 159.2C300 146.3 343 138.7 385.8 140.2C428.7 141.7 471.3 152.3 514.2 158.7C557 165 600 167 642.8 171.5C685.7 176 728.3 183 771.2 190.7C814 198.3 857 206.7 878.5 210.8L900 215L900 301L878.5 301C857 301 814 301 771.2 301C728.3 301 685.7 301 642.8 301C600 301 557 301 514.2 301C471.3 301 428.7 301 385.8 301C343 301 300 301 257.2 301C214.3 301 171.7 301 128.8 301C86 301 43 301 21.5 301L0 301Z" fill="#bbe6fb"></path><path d="M0 237L21.5 235C43 233 86 229 128.8 225.5C171.7 222 214.3 219 257.2 218.2C300 217.3 343 218.7 385.8 211C428.7 203.3 471.3 186.7 514.2 180.3C557 174 600 178 642.8 190C685.7 202 728.3 222 771.2 223.3C814 224.7 857 207.3 878.5 198.7L900 190L900 301L878.5 301C857 301 814 301 771.2 301C728.3 301 685.7 301 642.8 301C600 301 557 301 514.2 301C471.3 301 428.7 301 385.8 301C343 301 300 301 257.2 301C214.3 301 171.7 301 128.8 301C86 301 43 301 21.5 301L0 301Z" fill="#75b6d5"></path><path d="M0 239L21.5 241.5C43 244 86 249 128.8 250.5C171.7 252 214.3 250 257.2 246.3C300 242.7 343 237.3 385.8 234.5C428.7 231.7 471.3 231.3 514.2 235.5C557 239.7 600 248.3 642.8 252.2C685.7 256 728.3 255 771.2 251.7C814 248.3 857 242.7 878.5 239.8L900 237L900 301L878.5 301C857 301 814 301 771.2 301C728.3 301 685.7 301 642.8 301C600 301 557 301 514.2 301C471.3 301 428.7 301 385.8 301C343 301 300 301 257.2 301C214.3 301 171.7 301 128.8 301C86 301 43 301 21.5 301L0 301Z" fill="#1287b1"></path></svg>