<svg id="visual" viewBox="0 0 900 300" width="900" height="300" xmlns="http://www.w3.org/2000/svg" xmlns:xlink="http://www.w3.org/1999/xlink" version="1.1"><rect x="0" y="0" width="900" height="300" fill="#1287b1"></rect><path d="M0 123L25 126.8C50 130.7 100 138.3 150 151C200 163.7 250 181.3 300 192.7C350 204 400 209 450 209.8C500 210.7 550 207.3 600 193.8C650 180.3 700 156.7 750 154.3C800 152 850 171 875 180.5L900 190L900 301L875 301C850 301 800 301 750 301C700 301 650 301 600 301C550 301 500 301 450 301C400 301 350 301 300 301C250 301 200 301 150 301C100 301 50 301 25 301L0 301Z" fill="#bbe6fb"></path><path d="M0 235L25 238.7C50 242.3 100 249.7 150 250.2C200 250.7 250 244.3 300 244.7C350 245 400 252 450 246.8C500 241.7 550 224.3 600 223.3C650 222.3 700 237.7 750 243.2C800 248.7 850 244.3 875 242.2L900 240L900 301L875 301C850 301 800 301 750 301C700 301 650 301 600 301C550 301 500 301 450 301C400 301 350 301 300 301C250 301 200 301 150 301C100 301 50 301 25 301L0 301Z" fill="#ffffff"></path></svg>